<mxfile host="app.diagrams.net" modified="2022-05-31T12:44:09.784Z" agent="5.0 (Windows NT 10.0; Win64; x64) AppleWebKit/537.36 (KHTML, like Gecko) Chrome/101.0.4951.64 Safari/537.36 Edg/101.0.1210.53" etag="K-gwgacqPLWr9mQQxDVf" version="18.1.1" type="github">
  <diagram name="Page-1" id="fbcf5db9-b524-4cd4-e4f3-379dc89c3999">
    <mxGraphModel dx="1038" dy="571" grid="1" gridSize="10" guides="1" tooltips="1" connect="1" arrows="1" fold="1" page="1" pageScale="1" pageWidth="850" pageHeight="1100" background="none" math="0" shadow="0">
      <root>
        <mxCell id="0" />
        <mxCell id="1" parent="0" />
        <mxCell id="2a0f93b5c73ef8e7-2" value="" style="rounded=1;whiteSpace=wrap;html=1;strokeColor=none;strokeWidth=1;fillColor=#F2931E;fontSize=13;fontColor=#FFFFFF;align=center;gradientColor=none;gradientDirection=east;verticalAlign=top;shadow=1;" parent="1" vertex="1">
          <mxGeometry x="290" y="40" width="220" height="85" as="geometry" />
        </mxCell>
        <mxCell id="2a0f93b5c73ef8e7-3" value="1" style="text;html=1;strokeColor=none;fillColor=none;align=center;verticalAlign=middle;whiteSpace=wrap;fontSize=30;fontColor=#FFFFFF;" parent="1" vertex="1">
          <mxGeometry x="180" y="168" width="40" height="20" as="geometry" />
        </mxCell>
        <mxCell id="2a0f93b5c73ef8e7-4" value="" style="rounded=1;whiteSpace=wrap;html=1;strokeColor=none;strokeWidth=1;fillColor=#10739E;fontSize=13;fontColor=#FFFFFF;align=center;gradientColor=none;gradientDirection=east;verticalAlign=top;shadow=1;" parent="1" vertex="1">
          <mxGeometry x="332.5" y="188" width="140" height="62" as="geometry" />
        </mxCell>
        <mxCell id="2a0f93b5c73ef8e7-6" value="" style="rounded=1;whiteSpace=wrap;html=1;strokeColor=none;strokeWidth=1;fillColor=#F2931E;fontSize=13;fontColor=#FFFFFF;align=center;gradientColor=none;gradientDirection=east;verticalAlign=top;shadow=1;" parent="1" vertex="1">
          <mxGeometry x="292.5" y="308" width="220" height="85" as="geometry" />
        </mxCell>
        <mxCell id="2a0f93b5c73ef8e7-7" value="3" style="text;html=1;strokeColor=none;fillColor=none;align=center;verticalAlign=middle;whiteSpace=wrap;fontSize=30;fontColor=#FFFFFF;" parent="1" vertex="1">
          <mxGeometry x="180" y="393" width="40" height="20" as="geometry" />
        </mxCell>
        <mxCell id="2a0f93b5c73ef8e7-9" value="4" style="text;html=1;strokeColor=none;fillColor=none;align=center;verticalAlign=middle;whiteSpace=wrap;fontSize=30;fontColor=#FFFFFF;" parent="1" vertex="1">
          <mxGeometry x="350" y="508" width="40" height="20" as="geometry" />
        </mxCell>
        <mxCell id="2a0f93b5c73ef8e7-11" value="5" style="text;html=1;strokeColor=none;fillColor=none;align=center;verticalAlign=middle;whiteSpace=wrap;fontSize=30;fontColor=#FFFFFF;" parent="1" vertex="1">
          <mxGeometry x="174.99" y="624" width="40" height="20" as="geometry" />
        </mxCell>
        <mxCell id="2a0f93b5c73ef8e7-13" value="6" style="text;html=1;strokeColor=none;fillColor=none;align=center;verticalAlign=middle;whiteSpace=wrap;fontSize=30;fontColor=#FFFFFF;" parent="1" vertex="1">
          <mxGeometry x="344.99" y="739" width="40" height="20" as="geometry" />
        </mxCell>
        <mxCell id="2a0f93b5c73ef8e7-16" value="" style="rounded=1;whiteSpace=wrap;html=1;strokeColor=none;strokeWidth=1;fillColor=#10739E;fontSize=13;fontColor=#FFFFFF;align=center;gradientColor=none;gradientDirection=east;verticalAlign=top;shadow=1;" parent="1" vertex="1">
          <mxGeometry x="292.51" y="860" width="220" height="85" as="geometry" />
        </mxCell>
        <mxCell id="2a0f93b5c73ef8e7-18" value="&lt;h1&gt;登录&lt;/h1&gt;&lt;div&gt;（不开放注册、不提供个人修改密码）&lt;/div&gt;" style="text;html=1;spacing=5;spacingTop=-20;whiteSpace=wrap;overflow=hidden;strokeColor=none;strokeWidth=4;fillColor=none;gradientColor=#007FFF;fontSize=9;fontColor=#FFFFFF;align=center;" parent="1" vertex="1">
          <mxGeometry x="295" y="60" width="215" height="70" as="geometry" />
        </mxCell>
        <mxCell id="2a0f93b5c73ef8e7-19" value="&lt;h1&gt;验证&lt;/h1&gt;&lt;p&gt;&lt;br&gt;&lt;/p&gt;" style="text;html=1;spacing=5;spacingTop=-20;whiteSpace=wrap;overflow=hidden;strokeColor=none;strokeWidth=4;fillColor=none;gradientColor=#007FFF;fontSize=9;fontColor=#FFFFFF;align=center;" parent="1" vertex="1">
          <mxGeometry x="351.25" y="203" width="102.5" height="30" as="geometry" />
        </mxCell>
        <mxCell id="2a0f93b5c73ef8e7-20" value="&lt;h1&gt;主界面&lt;/h1&gt;&lt;p&gt;（不同模块界面有所不同）&lt;/p&gt;" style="text;html=1;spacing=5;spacingTop=-20;whiteSpace=wrap;overflow=hidden;strokeColor=none;strokeWidth=4;fillColor=none;gradientColor=#007FFF;fontSize=9;fontColor=#FFFFFF;align=center;" parent="1" vertex="1">
          <mxGeometry x="323.13" y="330" width="163.75" height="50" as="geometry" />
        </mxCell>
        <mxCell id="7wBidrZgz0czMCjT9D3W-1" value="" style="endArrow=classic;html=1;rounded=0;fontSize=25;exitX=0.5;exitY=1;exitDx=0;exitDy=0;" parent="1" source="2a0f93b5c73ef8e7-18" target="2a0f93b5c73ef8e7-4" edge="1">
          <mxGeometry width="50" height="50" relative="1" as="geometry">
            <mxPoint x="400" y="320" as="sourcePoint" />
            <mxPoint x="450" y="270" as="targetPoint" />
          </mxGeometry>
        </mxCell>
        <mxCell id="7wBidrZgz0czMCjT9D3W-2" value="" style="endArrow=classic;html=1;rounded=0;fontSize=25;exitX=1;exitY=0.5;exitDx=0;exitDy=0;entryX=0.5;entryY=1;entryDx=0;entryDy=0;" parent="1" source="2a0f93b5c73ef8e7-4" target="7wBidrZgz0czMCjT9D3W-3" edge="1">
          <mxGeometry width="50" height="50" relative="1" as="geometry">
            <mxPoint x="400" y="320" as="sourcePoint" />
            <mxPoint x="600" y="190" as="targetPoint" />
            <Array as="points">
              <mxPoint x="640" y="218" />
            </Array>
          </mxGeometry>
        </mxCell>
        <mxCell id="7wBidrZgz0czMCjT9D3W-3" value="" style="rounded=1;whiteSpace=wrap;html=1;strokeColor=none;strokeWidth=1;fillColor=#10739E;fontSize=13;fontColor=#FFFFFF;align=center;gradientColor=none;gradientDirection=east;verticalAlign=top;shadow=1;" parent="1" vertex="1">
          <mxGeometry x="570" y="125" width="140" height="60" as="geometry" />
        </mxCell>
        <mxCell id="7wBidrZgz0czMCjT9D3W-4" value="&lt;h1&gt;重新登陆&lt;/h1&gt;&lt;p&gt;&lt;br&gt;&lt;/p&gt;" style="text;html=1;spacing=5;spacingTop=-20;whiteSpace=wrap;overflow=hidden;strokeColor=none;strokeWidth=4;fillColor=none;gradientColor=#007FFF;fontSize=9;fontColor=#FFFFFF;align=center;" parent="1" vertex="1">
          <mxGeometry x="560" y="139.5" width="160" height="77" as="geometry" />
        </mxCell>
        <mxCell id="7wBidrZgz0czMCjT9D3W-5" value="" style="endArrow=classic;html=1;rounded=0;fontSize=25;exitX=0.5;exitY=0;exitDx=0;exitDy=0;" parent="1" source="7wBidrZgz0czMCjT9D3W-3" edge="1">
          <mxGeometry width="50" height="50" relative="1" as="geometry">
            <mxPoint x="400" y="320" as="sourcePoint" />
            <mxPoint x="520" y="90" as="targetPoint" />
            <Array as="points">
              <mxPoint x="640" y="90" />
            </Array>
          </mxGeometry>
        </mxCell>
        <mxCell id="7wBidrZgz0czMCjT9D3W-6" value="&lt;h1&gt;&lt;font color=&quot;#000000&quot;&gt;验证失败&lt;/font&gt;&lt;/h1&gt;" style="text;html=1;spacing=5;spacingTop=-20;whiteSpace=wrap;overflow=hidden;strokeColor=none;strokeWidth=4;fillColor=none;gradientColor=#007FFF;fontSize=9;fontColor=#FFFFFF;align=center;" parent="1" vertex="1">
          <mxGeometry x="500" y="193" width="102.5" height="40" as="geometry" />
        </mxCell>
        <mxCell id="7wBidrZgz0czMCjT9D3W-10" value="" style="endArrow=classic;html=1;rounded=0;fontSize=25;fontColor=#000000;exitX=0.5;exitY=1;exitDx=0;exitDy=0;entryX=0.5;entryY=0;entryDx=0;entryDy=0;" parent="1" source="2a0f93b5c73ef8e7-4" target="2a0f93b5c73ef8e7-6" edge="1">
          <mxGeometry width="50" height="50" relative="1" as="geometry">
            <mxPoint x="380" y="290" as="sourcePoint" />
            <mxPoint x="440" y="300" as="targetPoint" />
          </mxGeometry>
        </mxCell>
        <mxCell id="7wBidrZgz0czMCjT9D3W-11" value="" style="rounded=1;whiteSpace=wrap;html=1;strokeColor=#006EAF;strokeWidth=1;fillColor=#1ba1e2;fontSize=13;align=center;gradientDirection=east;verticalAlign=top;shadow=1;fontColor=#ffffff;" parent="1" vertex="1">
          <mxGeometry x="50" y="482" width="220" height="85" as="geometry" />
        </mxCell>
        <mxCell id="7wBidrZgz0czMCjT9D3W-12" value="&lt;h1&gt;信息查询&lt;/h1&gt;&lt;p&gt;（不同部门权限有所不同）&lt;/p&gt;" style="text;html=1;spacing=5;spacingTop=-20;whiteSpace=wrap;overflow=hidden;strokeColor=none;strokeWidth=4;fillColor=none;gradientColor=#007FFF;fontSize=9;fontColor=#FFFFFF;align=center;" parent="1" vertex="1">
          <mxGeometry x="81.88000000000001" y="500" width="156.25" height="50" as="geometry" />
        </mxCell>
        <mxCell id="7wBidrZgz0czMCjT9D3W-14" value="" style="endArrow=classic;html=1;rounded=0;fontSize=25;fontColor=#000000;exitX=0.5;exitY=1;exitDx=0;exitDy=0;entryX=0.5;entryY=0;entryDx=0;entryDy=0;" parent="1" source="2a0f93b5c73ef8e7-6" target="7wBidrZgz0czMCjT9D3W-11" edge="1">
          <mxGeometry width="50" height="50" relative="1" as="geometry">
            <mxPoint x="400" y="450" as="sourcePoint" />
            <mxPoint x="450" y="400" as="targetPoint" />
          </mxGeometry>
        </mxCell>
        <mxCell id="7wBidrZgz0czMCjT9D3W-18" value="" style="rounded=1;whiteSpace=wrap;html=1;strokeColor=#005700;strokeWidth=1;fillColor=#008a00;fontSize=13;align=center;gradientDirection=east;verticalAlign=top;shadow=1;fontColor=#ffffff;" parent="1" vertex="1">
          <mxGeometry x="292.5" y="482" width="220" height="85" as="geometry" />
        </mxCell>
        <mxCell id="7wBidrZgz0czMCjT9D3W-19" value="&lt;h1&gt;信息创建&lt;/h1&gt;&lt;p&gt;（不同部门权限有所不同）&lt;/p&gt;" style="text;html=1;spacing=5;spacingTop=-20;whiteSpace=wrap;overflow=hidden;strokeColor=none;strokeWidth=4;fillColor=none;gradientColor=#007FFF;fontSize=9;fontColor=#FFFFFF;align=center;" parent="1" vertex="1">
          <mxGeometry x="324.38" y="499.5" width="156.25" height="50" as="geometry" />
        </mxCell>
        <mxCell id="7wBidrZgz0czMCjT9D3W-21" value="" style="endArrow=classic;html=1;rounded=0;fontSize=25;fontColor=#000000;entryX=0.5;entryY=0;entryDx=0;entryDy=0;" parent="1" target="7wBidrZgz0czMCjT9D3W-18" edge="1">
          <mxGeometry width="50" height="50" relative="1" as="geometry">
            <mxPoint x="400" y="390" as="sourcePoint" />
            <mxPoint x="430" y="430" as="targetPoint" />
          </mxGeometry>
        </mxCell>
        <mxCell id="7wBidrZgz0czMCjT9D3W-22" value="4" style="text;html=1;strokeColor=none;fillColor=none;align=center;verticalAlign=middle;whiteSpace=wrap;fontSize=30;fontColor=#FFFFFF;" parent="1" vertex="1">
          <mxGeometry x="538.12" y="575.5" width="40" height="20" as="geometry" />
        </mxCell>
        <mxCell id="7wBidrZgz0czMCjT9D3W-24" value="" style="rounded=1;whiteSpace=wrap;html=1;strokeColor=#B09500;strokeWidth=1;fillColor=#e3c800;fontSize=13;fontColor=#000000;align=center;gradientDirection=east;verticalAlign=top;shadow=1;" parent="1" vertex="1">
          <mxGeometry x="538.12" y="482" width="220" height="85" as="geometry" />
        </mxCell>
        <mxCell id="7wBidrZgz0czMCjT9D3W-25" value="&lt;h1&gt;信息统计&lt;/h1&gt;&lt;p&gt;&lt;br&gt;&lt;/p&gt;" style="text;html=1;spacing=5;spacingTop=-20;whiteSpace=wrap;overflow=hidden;strokeColor=none;strokeWidth=4;fillColor=none;gradientColor=#007FFF;fontSize=9;fontColor=#FFFFFF;align=center;" parent="1" vertex="1">
          <mxGeometry x="574.07" y="508" width="156.25" height="50" as="geometry" />
        </mxCell>
        <mxCell id="7wBidrZgz0czMCjT9D3W-26" value="" style="endArrow=classic;html=1;rounded=0;fontSize=25;fontColor=#000000;exitX=0.5;exitY=1;exitDx=0;exitDy=0;entryX=0.5;entryY=0;entryDx=0;entryDy=0;" parent="1" source="2a0f93b5c73ef8e7-6" target="7wBidrZgz0czMCjT9D3W-24" edge="1">
          <mxGeometry width="50" height="50" relative="1" as="geometry">
            <mxPoint x="390" y="600" as="sourcePoint" />
            <mxPoint x="440" y="550" as="targetPoint" />
          </mxGeometry>
        </mxCell>
        <mxCell id="7wBidrZgz0czMCjT9D3W-27" value="4" style="text;html=1;strokeColor=none;fillColor=none;align=center;verticalAlign=middle;whiteSpace=wrap;fontSize=30;fontColor=#FFFFFF;" parent="1" vertex="1">
          <mxGeometry x="345.94" y="651.5" width="40" height="20" as="geometry" />
        </mxCell>
        <mxCell id="7wBidrZgz0czMCjT9D3W-28" value="" style="rounded=1;whiteSpace=wrap;html=1;strokeColor=#006EAF;strokeWidth=1;fillColor=#1ba1e2;fontSize=13;align=center;gradientDirection=east;verticalAlign=top;shadow=1;fontColor=#ffffff;" parent="1" vertex="1">
          <mxGeometry x="50.00000000000001" y="625.5" width="220" height="85" as="geometry" />
        </mxCell>
        <mxCell id="7wBidrZgz0czMCjT9D3W-29" value="&lt;h1&gt;检索&lt;/h1&gt;&lt;p&gt;&lt;br&gt;&lt;/p&gt;" style="text;html=1;spacing=5;spacingTop=-20;whiteSpace=wrap;overflow=hidden;strokeColor=none;strokeWidth=4;fillColor=none;gradientColor=#007FFF;fontSize=9;fontColor=#FFFFFF;align=center;" parent="1" vertex="1">
          <mxGeometry x="81.88000000000001" y="651.5" width="156.25" height="50" as="geometry" />
        </mxCell>
        <mxCell id="7wBidrZgz0czMCjT9D3W-30" value="" style="rounded=1;whiteSpace=wrap;html=1;strokeColor=#005700;strokeWidth=1;fillColor=#008a00;fontSize=13;fontColor=#ffffff;align=center;gradientDirection=east;verticalAlign=top;shadow=1;" parent="1" vertex="1">
          <mxGeometry x="292.51" y="625.5" width="220" height="85" as="geometry" />
        </mxCell>
        <mxCell id="7wBidrZgz0czMCjT9D3W-31" value="&lt;h1&gt;提交、审批&lt;/h1&gt;&lt;p&gt;&lt;br&gt;&lt;/p&gt;" style="text;html=1;spacing=5;spacingTop=-20;whiteSpace=wrap;overflow=hidden;strokeColor=none;strokeWidth=4;fillColor=none;gradientColor=#007FFF;fontSize=9;fontColor=#FFFFFF;align=center;" parent="1" vertex="1">
          <mxGeometry x="326.88" y="651.5" width="156.25" height="50" as="geometry" />
        </mxCell>
        <mxCell id="7wBidrZgz0czMCjT9D3W-33" value="" style="rounded=1;whiteSpace=wrap;html=1;strokeColor=#B09500;strokeWidth=1;fillColor=#e3c800;fontSize=13;fontColor=#000000;align=center;gradientDirection=east;verticalAlign=top;shadow=1;" parent="1" vertex="1">
          <mxGeometry x="538.12" y="625.5" width="220" height="85" as="geometry" />
        </mxCell>
        <mxCell id="7wBidrZgz0czMCjT9D3W-34" value="&lt;h1&gt;分析&lt;/h1&gt;&lt;p&gt;&lt;br&gt;&lt;/p&gt;" style="text;html=1;spacing=5;spacingTop=-20;whiteSpace=wrap;overflow=hidden;strokeColor=none;strokeWidth=4;fillColor=none;gradientColor=#007FFF;fontSize=9;fontColor=#FFFFFF;align=center;" parent="1" vertex="1">
          <mxGeometry x="574.07" y="651.5" width="156.25" height="50" as="geometry" />
        </mxCell>
        <mxCell id="7wBidrZgz0czMCjT9D3W-35" value="" style="endArrow=classic;html=1;rounded=0;fontSize=25;fontColor=#000000;exitX=0.5;exitY=1;exitDx=0;exitDy=0;entryX=0.5;entryY=0;entryDx=0;entryDy=0;" parent="1" source="7wBidrZgz0czMCjT9D3W-11" target="7wBidrZgz0czMCjT9D3W-28" edge="1">
          <mxGeometry width="50" height="50" relative="1" as="geometry">
            <mxPoint x="390" y="690" as="sourcePoint" />
            <mxPoint x="440" y="640" as="targetPoint" />
          </mxGeometry>
        </mxCell>
        <mxCell id="7wBidrZgz0czMCjT9D3W-36" value="" style="endArrow=classic;html=1;rounded=0;fontSize=25;fontColor=#000000;exitX=0.5;exitY=1;exitDx=0;exitDy=0;entryX=0.5;entryY=0;entryDx=0;entryDy=0;" parent="1" source="7wBidrZgz0czMCjT9D3W-18" target="7wBidrZgz0czMCjT9D3W-30" edge="1">
          <mxGeometry width="50" height="50" relative="1" as="geometry">
            <mxPoint x="350" y="630" as="sourcePoint" />
            <mxPoint x="400" y="580" as="targetPoint" />
          </mxGeometry>
        </mxCell>
        <mxCell id="7wBidrZgz0czMCjT9D3W-37" value="" style="endArrow=classic;html=1;rounded=0;fontSize=25;fontColor=#000000;exitX=0.5;exitY=1;exitDx=0;exitDy=0;entryX=0.5;entryY=0;entryDx=0;entryDy=0;" parent="1" source="7wBidrZgz0czMCjT9D3W-24" target="7wBidrZgz0czMCjT9D3W-33" edge="1">
          <mxGeometry width="50" height="50" relative="1" as="geometry">
            <mxPoint x="650" y="630" as="sourcePoint" />
            <mxPoint x="700" y="580" as="targetPoint" />
          </mxGeometry>
        </mxCell>
        <mxCell id="7wBidrZgz0czMCjT9D3W-38" value="" style="endArrow=classic;html=1;rounded=0;fontSize=25;fontColor=#000000;exitX=0.5;exitY=1;exitDx=0;exitDy=0;entryX=0.5;entryY=0;entryDx=0;entryDy=0;" parent="1" source="7wBidrZgz0czMCjT9D3W-28" target="2a0f93b5c73ef8e7-16" edge="1">
          <mxGeometry width="50" height="50" relative="1" as="geometry">
            <mxPoint x="135" y="820" as="sourcePoint" />
            <mxPoint x="410" y="850" as="targetPoint" />
          </mxGeometry>
        </mxCell>
        <mxCell id="7wBidrZgz0czMCjT9D3W-39" value="" style="endArrow=classic;html=1;rounded=0;fontSize=25;fontColor=#000000;exitX=0.5;exitY=1;exitDx=0;exitDy=0;entryX=0.5;entryY=0;entryDx=0;entryDy=0;" parent="1" source="7wBidrZgz0czMCjT9D3W-30" target="2a0f93b5c73ef8e7-16" edge="1">
          <mxGeometry width="50" height="50" relative="1" as="geometry">
            <mxPoint x="440" y="810" as="sourcePoint" />
            <mxPoint x="490" y="760" as="targetPoint" />
          </mxGeometry>
        </mxCell>
        <mxCell id="7wBidrZgz0czMCjT9D3W-40" value="" style="endArrow=classic;html=1;rounded=0;fontSize=25;fontColor=#000000;exitX=0.5;exitY=1;exitDx=0;exitDy=0;entryX=0.5;entryY=0;entryDx=0;entryDy=0;" parent="1" source="7wBidrZgz0czMCjT9D3W-33" target="2a0f93b5c73ef8e7-16" edge="1">
          <mxGeometry width="50" height="50" relative="1" as="geometry">
            <mxPoint x="600" y="810" as="sourcePoint" />
            <mxPoint x="650" y="760" as="targetPoint" />
          </mxGeometry>
        </mxCell>
        <mxCell id="7wBidrZgz0czMCjT9D3W-41" value="&lt;h1&gt;返回结果&lt;/h1&gt;&lt;p&gt;&lt;br&gt;&lt;/p&gt;" style="text;html=1;spacing=5;spacingTop=-20;whiteSpace=wrap;overflow=hidden;strokeColor=none;strokeWidth=4;fillColor=none;gradientColor=#007FFF;fontSize=9;fontColor=#FFFFFF;align=center;" parent="1" vertex="1">
          <mxGeometry x="326.88" y="890" width="156.25" height="50" as="geometry" />
        </mxCell>
      </root>
    </mxGraphModel>
  </diagram>
</mxfile>
